<svg xmlns="http://www.w3.org/2000/svg" version="1.1" xmlns:xlink="http://www.w3.org/1999/xlink" xmlns:svgjs="http://svgjs.dev/svgjs" width="1000" height="159" viewBox="0 0 1000 159"><g transform="matrix(1,0,0,1,-0.6060257403109404,-0.359958392138779)"><svg viewBox="0 0 396 63" data-background-color="#ffffff" preserveAspectRatio="xMidYMid meet" height="159" width="1000" xmlns="http://www.w3.org/2000/svg" xmlns:xlink="http://www.w3.org/1999/xlink"><g id="tight-bounds" transform="matrix(1,0,0,1,0.2399862421930834,0.14262502330026905)"><svg viewBox="0 0 395.52 62.71474964961787" height="62.71474964961787" width="395.52"><g><svg viewBox="0 0 395.52 62.71474964961787" height="62.71474964961787" width="395.52"><g><svg viewBox="0 0 395.52 62.71474964961787" height="62.71474964961787" width="395.52"><g id="textblocktransform"><svg viewBox="0 0 395.52 62.71474964961787" height="62.71474964961787" width="395.52" id="textblock"><g><rect width="126.58992262687809" height="3.0504039990939846" y="50.737517829431425" fill="#000000" data-fill-palette-color="tertiary"></rect><rect width="126.58992262687809" height="3.0504039990939846" y="50.737517829431425" x="268.9300773731219" fill="#000000" data-fill-palette-color="tertiary"></rect></g><g><svg viewBox="0 0 395.52 33.82533922537041" height="33.82533922537041" width="395.52"><g transform="matrix(1,0,0,1,0,0)"><svg width="395.52" viewBox="0.9500000476837158 -32.45000076293945 384.65997314453125 32.900001525878906" height="33.82533922537041" data-palette-color="#f9e17e"><path d="M23.55-32.1L23.85-31.65 23.55-27.75 17.75-28.05 15.05-28.05 14.8-10.1 15.05 0 9.85 0 10.15-9.65 9.9-28.05 7.2-28.05 1.3-27.75 0.95-28.2 1.35-32.1 23.55-32.1ZM41.2-32.3Q48.1-32.3 51.8-28.4 55.5-24.5 55.5-17.2L55.5-17.2Q55.5-8.75 51.45-4.23 47.4 0.3 39.8 0.3L39.8 0.3Q37.65 0.3 34.65 0.23 31.65 0.15 29.05 0L29.05 0 29 0 29.35-9.65 29-32.1 29.05-32.1 41.2-32.3ZM40.7-3.8Q45.3-3.8 47.72-6.85 50.15-9.9 50.15-16.05L50.15-16.05Q50.15-22.25 47.82-25.18 45.5-28.1 40.8-28.1L40.8-28.1Q38.05-28.1 34.25-27.9L34.25-27.9 34-10.1 34.15-4.15Q35.95-4 37.75-3.9 39.55-3.8 40.7-3.8L40.7-3.8ZM80.39-32.15Q85.24-32.15 87.87-29.68 90.49-27.2 90.49-22.55L90.49-22.55Q90.49-17.15 87.17-14 83.84-10.85 78.04-10.85L78.04-10.85 74.49-10.85 74.49-10.1 74.74 0 69.49 0 69.84-9.65 69.49-32.1 80.39-32.15ZM79.54-14.85Q82.29-15.4 83.72-17.23 85.14-19.05 85.14-22.1L85.14-22.1Q85.14-25.1 83.62-26.55 82.09-28 78.99-28.1L78.99-28.1 74.74-27.95 74.54-14.95 79.54-14.85ZM110.89-12.85Q114.29-7.4 118.94-1.2L118.94-1.2 118.89-0.6Q116.49 0.2 113.94 0.45L113.94 0.45 113.34 0.05Q109.19-6.75 106.64-11.45L106.64-11.45 101.19-11.45 101.19-10.1 101.44 0 96.19 0 96.54-9.65 96.19-32.1 107.09-32.15Q111.94-32.15 114.59-29.73 117.24-27.3 117.24-22.8L117.24-22.8Q117.24-19.6 115.56-17.03 113.89-14.45 110.89-12.85L110.89-12.85ZM101.44-27.95L101.29-15.65 106.79-15.5Q111.84-17.05 111.84-22.4L111.84-22.4Q111.84-25.2 110.31-26.6 108.79-28 105.69-28.1L105.69-28.1 101.44-27.95ZM129.99-32.1L129.69-10.1 129.94 0 124.69 0 125.04-9.65 124.69-32.1 129.99-32.1ZM164.44-32.2L164.14-9.6 164.29 0 158.74 0 143.64-24.05 143.28-24.05 143.24-10.75 143.39 0 138.69 0 138.94-9.5 138.74-32.1 144.19-32.1 159.34-8.05 159.74-8.05 159.64-31.85 164.44-32.2ZM191.73-32.1L192.03-31.65 191.73-27.75 185.93-28.05 183.23-28.05 182.98-10.1 183.23 0 178.03 0 178.33-9.65 178.08-28.05 175.38-28.05 169.48-27.75 169.13-28.2 169.53-32.1 191.73-32.1ZM205.88-32.45Q209.68-32.45 213.48-30.85L213.48-30.85 212.63-26.15 211.83-25.85Q210.23-27 208.53-27.65 206.83-28.3 205.28-28.3L205.28-28.3Q202.83-28.3 201.38-26.95 199.93-25.6 199.93-23.8L199.93-23.8Q199.93-22.05 201.38-20.93 202.83-19.8 205.93-18.35L205.93-18.35Q208.63-17.05 210.31-16 211.98-14.95 213.18-13.23 214.38-11.5 214.38-9.1L214.38-9.1Q214.38-6.5 212.96-4.33 211.53-2.15 208.96-0.88 206.38 0.4 203.08 0.4L203.08 0.4Q200.88 0.4 198.53-0.15 196.18-0.7 194.08-1.75L194.08-1.75 194.73-6.85 195.38-7.15Q197.23-5.4 199.46-4.53 201.68-3.65 203.58-3.65L203.58-3.65Q206.18-3.65 207.73-5.03 209.28-6.4 209.28-8.3L209.28-8.3Q209.28-10.2 207.78-11.38 206.28-12.55 203.18-14L203.18-14Q200.53-15.25 198.88-16.28 197.23-17.3 196.06-19 194.88-20.7 194.88-23.1L194.88-23.1Q194.88-25.7 196.28-27.85 197.68-30 200.18-31.23 202.68-32.45 205.88-32.45L205.88-32.45ZM239.53-32.15Q244.38-32.15 247-29.68 249.63-27.2 249.63-22.55L249.63-22.55Q249.63-17.15 246.3-14 242.98-10.85 237.18-10.85L237.18-10.85 233.63-10.85 233.63-10.1 233.88 0 228.63 0 228.98-9.65 228.63-32.1 239.53-32.15ZM238.68-14.85Q241.43-15.4 242.85-17.23 244.28-19.05 244.28-22.1L244.28-22.1Q244.28-25.1 242.75-26.55 241.23-28 238.13-28.1L238.13-28.1 233.88-27.95 233.68-14.95 238.68-14.85ZM278.72-32.1L267.37 0 261.27 0 250.87-32.1 256.17-32.1 256.92-28.45 264.27-5 264.62-5 272.77-28.2 273.57-32.1 278.72-32.1ZM302.47-32.1L302.77-31.65 302.47-27.75 296.67-28.05 293.97-28.05 293.72-10.1 293.97 0 288.77 0 289.07-9.65 288.82-28.05 286.12-28.05 280.22-27.75 279.87-28.2 280.27-32.1 302.47-32.1ZM332.37-4.3L332.72-3.85 332.31 0 315.81 0 316.17-9.65 315.81-32.1 321.12-32.1 320.81-10.1 320.92-4.3 332.37-4.3ZM353.66-32.1L353.96-31.65 353.66-27.75 347.86-28.05 345.16-28.05 344.91-10.1 345.16 0 339.96 0 340.26-9.65 340.01-28.05 337.31-28.05 331.41-27.75 331.06-28.2 331.46-32.1 353.66-32.1ZM371.31-32.3Q378.21-32.3 381.91-28.4 385.61-24.5 385.61-17.2L385.61-17.2Q385.61-8.75 381.56-4.23 377.51 0.3 369.91 0.3L369.91 0.3Q367.76 0.3 364.76 0.23 361.76 0.15 359.16 0L359.16 0 359.11 0 359.46-9.65 359.11-32.1 359.16-32.1 371.31-32.3ZM370.81-3.8Q375.41-3.8 377.83-6.85 380.26-9.9 380.26-16.05L380.26-16.05Q380.26-22.25 377.94-25.18 375.61-28.1 370.91-28.1L370.91-28.1Q368.16-28.1 364.36-27.9L364.36-27.9 364.11-10.1 364.26-4.15Q366.06-4 367.86-3.9 369.66-3.8 370.81-3.8L370.81-3.8Z" opacity="1" transform="matrix(1,0,0,1,0,0)" fill="#000000" class="undefined-text-0" data-fill-palette-color="primary" id="text-0"></path></svg></g></svg></g><g transform="matrix(1,0,0,1,126.58992262687809,41.81069000833896)"><svg viewBox="0 0 142.3401547462438 20.904059641278916" height="20.904059641278916" width="142.3401547462438"><g transform="matrix(1,0,0,1,7.999999999999993,0)"><svg width="126.34015474624381" viewBox="0.9500000476837158 -37.95000076293945 317.2699890136719 52.5" height="20.904059641278916" data-palette-color="#f9e17e"><path d="M17.85-10.95L17.85-10.95 11.9-10.95 9.95 0 0.95 0 7.3-36 22.55-36Q28.2-36 30.6-33.4L30.6-33.4Q32.35-31.4 32.35-28.3L32.35-28.3Q32.35-27.25 32.15-26.1L32.15-26.1 31.15-20.45Q30.4-16.3 26.75-13.63 23.1-10.95 17.85-10.95ZM19.4-28.2L19.4-28.2 14.9-28.2 13.25-18.75 17.7-18.75Q21.8-18.75 22.45-22.4L22.45-22.4 22.8-24.45Q22.9-24.9 22.9-25.65 22.9-26.4 22.15-27.3 21.4-28.2 19.4-28.2ZM58.95-6.4L58.95-6.4Q60.1-6.4 61-6.9L61-6.9 60.75-1.25Q58.4 0.7 55.4 0.7L55.4 0.7Q48.6 0.7 48.6-5L48.6-5Q48.6-6 48.8-7.15L48.8-7.15 49.9-13.3Q50.05-14.2 50.05-15.1L50.05-15.1Q50.05-17.5 47.52-17.5 45-17.5 43.6-15.8L43.6-15.8 40.8 0 32.3 0 39-37.95 47.5-37.95 44.65-21.8Q47.4-24.75 51.55-24.75L51.55-24.75Q56.6-24.75 58.1-22.5L58.1-22.5Q59.15-21 59.15-19.15 59.15-17.3 58.85-15.75L58.85-15.75 57.5-8.3Q57.45-8 57.45-7.75L57.45-7.75Q57.45-6.4 58.95-6.4ZM78.9-24.75L78.9-24.75Q84.3-24.75 87.05-22.4L87.05-22.4Q89.2-20.55 89.2-17.25L89.2-17.25Q89.2-16.15 88.95-14.85L88.95-14.85 87.9-9Q86.95-3.7 83.47-1.5 80 0.7 74.2 0.7 68.4 0.7 65.7-1.5L65.7-1.5Q63.7-3.15 63.7-6.45L63.7-6.45Q63.7-7.6 63.95-9L63.95-9 65-14.85Q66.75-24.75 78.9-24.75ZM79.59-10.1L80.25-13.85Q80.34-14.35 80.34-15.13 80.34-15.9 79.7-16.85 79.05-17.8 77.42-17.8 75.8-17.8 74.7-16.73 73.59-15.65 73.3-13.85L73.3-13.85 72.65-10.1Q72.55-9.6 72.55-8.83 72.55-8.05 73.2-7.15 73.84-6.25 75.47-6.25 77.09-6.25 78.2-7.38 79.3-8.5 79.59-10.1L79.59-10.1ZM102.84 0.7L102.84 0.7Q97.04 0.7 94.49-1.9L94.49-1.9Q92.59-3.8 92.59-7L92.59-7Q92.59-8.05 92.79-9.25L92.79-9.25 96.19-28.6 105.34-32.4 103.89-24.05 117.69-24.05 116.44-17 102.64-17 101.64-11.35Q101.44-10.4 101.44-9.65L101.44-9.65Q101.44-6.5 104.44-6.5L104.44-6.5Q106.04-6.5 107.12-7.85 108.19-9.2 108.59-11.45L108.59-11.45 116.89-11.45Q114.79 0.7 102.84 0.7ZM134.54-24.75L134.54-24.75Q139.94-24.75 142.69-22.4L142.69-22.4Q144.84-20.55 144.84-17.25L144.84-17.25Q144.84-16.15 144.59-14.85L144.59-14.85 143.54-9Q142.59-3.7 139.12-1.5 135.64 0.7 129.84 0.7 124.04 0.7 121.34-1.5L121.34-1.5Q119.34-3.15 119.34-6.45L119.34-6.45Q119.34-7.6 119.59-9L119.59-9 120.64-14.85Q122.39-24.75 134.54-24.75ZM135.24-10.1L135.89-13.85Q135.99-14.35 135.99-15.13 135.99-15.9 135.34-16.85 134.69-17.8 133.07-17.8 131.44-17.8 130.34-16.73 129.24-15.65 128.94-13.85L128.94-13.85 128.29-10.1Q128.19-9.6 128.19-8.83 128.19-8.05 128.84-7.15 129.49-6.25 131.12-6.25 132.74-6.25 133.84-7.38 134.94-8.5 135.24-10.1L135.24-10.1ZM169.79 0.8Q168.69 7.15 164.76 10.85 160.84 14.55 155.79 14.55 150.74 14.55 148.51 12.7 146.29 10.85 146.29 7.85L146.29 7.85Q146.29 3.45 151.89 0.2L151.89 0.2Q147.64-1.15 147.64-6.25L147.64-6.25Q147.64-7.5 147.89-9L147.89-9 148.89-14.85Q149.69-19.35 152.59-22.03 155.49-24.7 160.11-24.7 164.74-24.7 166.44-22.45L166.44-22.45 166.74-24.05 174.19-24.05 169.79 0.8ZM157.24-13.85L156.59-10.1Q156.49-9.65 156.49-8.85 156.49-8.05 157.24-7.28 157.99-6.5 159.76-6.5 161.54-6.5 162.84-7.9L162.84-7.9 164.34-16.3Q163.64-17.55 161.69-17.55 159.74-17.55 158.64-16.55 157.54-15.55 157.24-13.85L157.24-13.85ZM156.94 7.4L156.94 7.4Q160.19 7.4 161.19 1.5L161.19 1.5 161.69-1.4Q154.74 1.85 154.74 5.15L154.74 5.15Q154.74 6.15 155.31 6.78 155.89 7.4 156.94 7.4ZM199.89-18.95L199.89-18.95Q199.89-17.25 199.31-15.65 198.74-14.05 198.19-13.3L198.19-13.3 197.64-12.6 190.09-12.6Q191.34-13.75 191.34-15.45L191.34-15.45Q191.34-16.35 190.76-16.93 190.19-17.5 189.19-17.5L189.19-17.5Q187.49-17.5 186.24-15.8L186.24-15.8 183.44 0 174.94 0 179.19-24.05 187.09-24.05 186.49-20.7Q189.34-24.75 193.39-24.75L193.39-24.75Q196.64-24.75 198.26-23.2 199.89-21.65 199.89-18.95ZM224.78-7.7L224.78-7.7Q224.78-6.4 226.11-6.4 227.43-6.4 228.33-6.9L228.33-6.9 228.08-1.25Q225.68 0.7 222.68 0.7L222.68 0.7Q217.18 0.7 216.58-3.3L216.58-3.3Q214.08 0.7 209.23 0.7L209.23 0.7Q201.03 0.7 201.03-6.35L201.03-6.35Q201.03-7.55 201.28-9L201.28-9 202.33-14.85Q203.13-19.35 206.01-22.03 208.88-24.7 213.51-24.7 218.13-24.7 219.78-22.55L219.78-22.55 220.03-24.05 227.63-24.05 224.83-8.3Q224.78-8 224.78-7.7ZM210.63-13.85L209.98-10.1Q209.88-9.65 209.88-8.85 209.88-8.05 210.63-7.28 211.38-6.5 213.16-6.5 214.93-6.5 216.23-7.9L216.23-7.9 217.73-16.3Q217.18-17.55 215.13-17.55L215.13-17.55Q211.28-17.55 210.63-13.85L210.63-13.85ZM248.78-24.7L248.78-24.7Q253.88-24.7 255.83-22L255.83-22Q257.23-20.15 257.23-17.3L257.23-17.3Q257.23-16.15 256.98-14.85L256.98-14.85 255.98-9Q255.13-4.25 252.33-1.78 249.53 0.7 245.33 0.7 241.13 0.7 239.48-1.55L239.48-1.55 236.78 13.9 228.28 13.9 234.98-24.05 242.68-24.05 242.43-22.7Q244.78-24.7 248.78-24.7ZM243.58-6.5L243.58-6.5Q244.98-6.5 246.18-7.4 247.38-8.3 247.68-10.1L247.68-10.1 248.33-13.85Q248.43-14.35 248.43-15.1 248.43-15.85 247.78-16.7 247.13-17.55 245.53-17.55L245.53-17.55Q242.93-17.55 242.13-16.3L242.13-16.3 240.63-7.9Q241.33-6.5 243.58-6.5ZM286.18-6.4L286.18-6.4Q287.33-6.4 288.23-6.9L288.23-6.9 287.98-1.25Q285.63 0.7 282.63 0.7L282.63 0.7Q275.83 0.7 275.83-5L275.83-5Q275.83-6 276.03-7.15L276.03-7.15 277.13-13.3Q277.28-14.2 277.28-15.1L277.28-15.1Q277.28-17.5 274.75-17.5 272.23-17.5 270.83-15.8L270.83-15.8 268.03 0 259.53 0 266.23-37.95 274.73-37.95 271.88-21.8Q274.63-24.75 278.78-24.75L278.78-24.75Q283.83-24.75 285.33-22.5L285.33-22.5Q286.38-21 286.38-19.15 286.38-17.3 286.08-15.75L286.08-15.75 284.73-8.3Q284.68-8 284.68-7.75L284.68-7.75Q284.68-6.4 286.18-6.4ZM303.07-24.05L300.72-10.75Q300.57-9.85 300.57-8.95L300.57-8.95Q300.57-6.55 303.27-6.55L303.27-6.55Q305.47-6.55 306.93-8.1L306.93-8.1 309.72-24.05 318.22-24.05 313.82 0.8Q312.72 7.15 308.8 10.85 304.88 14.55 299.82 14.55 294.77 14.55 292.55 12.7 290.32 10.85 290.32 7.85L290.32 7.85Q290.32 3.6 295.57 0.3L295.57 0.3Q292.72-0.4 291.97-2.55L291.97-2.55Q291.52-3.75 291.52-5.25 291.52-6.75 291.77-8.3L291.77-8.3 294.57-24.05 303.07-24.05ZM300.97 7.4L300.97 7.4Q304.22 7.4 305.22 1.5L305.22 1.5 305.72-1.4Q298.77 1.85 298.77 5.15L298.77 5.15Q298.77 6.15 299.35 6.78 299.93 7.4 300.97 7.4Z" opacity="1" transform="matrix(1,0,0,1,0,0)" fill="#000000" class="undefined-text-1" data-fill-palette-color="secondary" id="text-1"></path></svg></g></svg></g></svg></g></svg></g><g></g></svg></g><defs></defs></svg><rect width="395.52" height="62.71474964961787" fill="none" stroke="none" visibility="hidden"></rect></g></svg></g></svg>